<svg width="245" height="117" viewBox="0 0 245 117" fill="none" xmlns="http://www.w3.org/2000/svg">
<g clip-path="url(#clip0_126_244)">
<path d="M92 53.5C105.807 53.5 117 42.3071 117 28.5C117 14.6929 105.807 3.5 92 3.5C78.1929 3.5 67 14.6929 67 28.5C67 42.3071 78.1929 53.5 92 53.5Z" fill="#265073"/>
<path d="M91.7891 38.9765C90.1953 38.9765 88.6484 38.7796 87.1484 38.3858C85.6484 37.9921 84.4297 37.4671 83.4922 36.8108L85.3203 32.7046C86.2016 33.2858 87.2234 33.7546 88.3859 34.1108C89.5484 34.4671 90.6922 34.6452 91.8172 34.6452C93.9547 34.6452 95.0234 34.1108 95.0234 33.0421C95.0234 32.4796 94.7188 32.0624 94.1094 31.7905C93.5 31.5187 92.5203 31.2327 91.1703 30.9327C89.6891 30.614 88.4516 30.2718 87.4578 29.9062C86.4641 29.5405 85.6109 28.9546 84.8984 28.1483C84.1859 27.3421 83.8297 26.2546 83.8297 24.8858C83.8297 23.6858 84.1578 22.603 84.8141 21.6374C85.4703 20.6718 86.45 19.9077 87.7531 19.3452C89.0563 18.7827 90.6547 18.5015 92.5484 18.5015C93.8422 18.5015 95.1172 18.6468 96.3734 18.9374C97.6297 19.228 98.7359 19.6546 99.6922 20.2171L97.9766 24.3515C96.1016 23.339 94.2828 22.8327 92.5203 22.8327C91.4141 22.8327 90.6078 22.9968 90.1016 23.3249C89.5953 23.653 89.3422 24.0796 89.3422 24.6046C89.3422 25.1296 89.6422 25.5233 90.2422 25.7858C90.8422 26.0483 91.8078 26.3202 93.1391 26.6015C94.6391 26.9202 95.8813 27.2624 96.8656 27.628C97.85 27.9937 98.7031 28.5749 99.425 29.3718C100.147 30.1687 100.508 31.2515 100.508 32.6202C100.508 33.8015 100.18 34.8702 99.5234 35.8265C98.8672 36.7827 97.8828 37.5468 96.5703 38.1187C95.2578 38.6905 93.6641 38.9765 91.7891 38.9765Z" fill="white"/>
</g>
<path d="M163.099 21.0506C161.456 21.0506 159.981 21.8208 158.974 23.0358V21.7587H154.846V42.5H159.43V35.2376C160.436 36.0923 161.709 36.6066 163.099 36.6066C167.152 36.6066 170.436 33.1257 170.436 28.8298C170.436 24.534 167.149 21.0531 163.099 21.0531V21.0506ZM162.64 32.271C160.868 32.271 159.43 30.7305 159.43 28.8298C159.43 26.9291 160.868 25.3887 162.64 25.3887C164.413 25.3887 165.849 26.9291 165.849 28.8298C165.849 30.7305 164.413 32.271 162.64 32.271ZM178 33.7791C178 34.5293 177.71 35.2488 177.194 35.7793C176.678 36.3098 175.978 36.6078 175.249 36.6078C174.519 36.6078 173.819 36.3098 173.303 35.7793C172.787 35.2488 172.497 34.5293 172.497 33.7791C172.497 33.0289 172.787 32.3094 173.303 31.7789C173.819 31.2484 174.519 30.9504 175.249 30.9504C175.978 30.9504 176.678 31.2484 177.194 31.7789C177.71 32.3094 178 33.0289 178 33.7791ZM151.912 17.1399C151.912 17.84 151.642 18.5115 151.16 19.0065C150.678 19.5016 150.025 19.7797 149.344 19.7797C148.663 19.7797 148.01 19.5016 147.529 19.0065C147.047 18.5115 146.777 17.84 146.777 17.1399C146.777 16.4397 147.047 15.7683 147.529 15.2732C148.01 14.7781 148.663 14.5 149.344 14.5C150.025 14.5 150.678 14.7781 151.16 15.2732C151.642 15.7683 151.912 16.4397 151.912 17.1399ZM147.052 21.7587H151.637V35.9009H147.052V21.7587ZM136.506 19.1201H130.546V35.9009H125.96V19.1201H120V15.1572H136.506V19.1176V19.1201ZM143.84 21.6867C144.155 21.6867 144.457 21.7165 144.759 21.7612V26.0844C144.522 26.035 144.282 26.0092 144.041 26.0073C141.914 26.0073 140.189 27.5279 140.189 29.9653V35.9009H135.59V21.7587H139.715V23.9948C140.592 22.6084 142.11 21.6842 143.84 21.6842V21.6867Z" fill="#265073"/>
<path d="M15.14 97.78C13.0867 97.78 11.2467 97.4467 9.62 96.78C7.99333 96.1133 6.68667 95.1267 5.7 93.82C4.74 92.5133 4.23333 90.94 4.18 89.1H11.46C11.5667 90.14 11.9267 90.94 12.54 91.5C13.1533 92.0333 13.9533 92.3 14.94 92.3C15.9533 92.3 16.7533 92.0733 17.34 91.62C17.9267 91.14 18.22 90.4867 18.22 89.66C18.22 88.9667 17.98 88.3933 17.5 87.94C17.0467 87.4867 16.4733 87.1133 15.78 86.82C15.1133 86.5267 14.1533 86.1933 12.9 85.82C11.0867 85.26 9.60667 84.7 8.46 84.14C7.31333 83.58 6.32667 82.7533 5.5 81.66C4.67333 80.5667 4.26 79.14 4.26 77.38C4.26 74.7667 5.20667 72.7267 7.1 71.26C8.99333 69.7667 11.46 69.02 14.5 69.02C17.5933 69.02 20.0867 69.7667 21.98 71.26C23.8733 72.7267 24.8867 74.78 25.02 77.42H17.62C17.5667 76.5133 17.2333 75.8067 16.62 75.3C16.0067 74.7667 15.22 74.5 14.26 74.5C13.4333 74.5 12.7667 74.7267 12.26 75.18C11.7533 75.6067 11.5 76.2333 11.5 77.06C11.5 77.9667 11.9267 78.6733 12.78 79.18C13.6333 79.6867 14.9667 80.2333 16.78 80.82C18.5933 81.4333 20.06 82.02 21.18 82.58C22.3267 83.14 23.3133 83.9533 24.14 85.02C24.9667 86.0867 25.38 87.46 25.38 89.14C25.38 90.74 24.9667 92.1933 24.14 93.5C23.34 94.8067 22.1667 95.8467 20.62 96.62C19.0733 97.3933 17.2467 97.78 15.14 97.78ZM28.2294 86.3C28.2294 84.0067 28.656 81.9933 29.5094 80.26C30.3894 78.5267 31.576 77.1933 33.0694 76.26C34.5627 75.3267 36.2294 74.86 38.0694 74.86C39.6427 74.86 41.016 75.18 42.1894 75.82C43.3894 76.46 44.3094 77.3 44.9494 78.34V75.18H51.7894V97.5H44.9494V94.34C44.2827 95.38 43.3494 96.22 42.1494 96.86C40.976 97.5 39.6027 97.82 38.0294 97.82C36.216 97.82 34.5627 97.3533 33.0694 96.42C31.576 95.46 30.3894 94.1133 29.5094 92.38C28.656 90.62 28.2294 88.5933 28.2294 86.3ZM44.9494 86.34C44.9494 84.6333 44.4694 83.2867 43.5094 82.3C42.576 81.3133 41.4294 80.82 40.0694 80.82C38.7094 80.82 37.5494 81.3133 36.5894 82.3C35.656 83.26 35.1894 84.5933 35.1894 86.3C35.1894 88.0067 35.656 89.3667 36.5894 90.38C37.5494 91.3667 38.7094 91.86 40.0694 91.86C41.4294 91.86 42.576 91.3667 43.5094 90.38C44.4694 89.3933 44.9494 88.0467 44.9494 86.34ZM63.5778 78.34C64.2178 77.3 65.1378 76.46 66.3378 75.82C67.5378 75.18 68.9111 74.86 70.4578 74.86C72.2978 74.86 73.9645 75.3267 75.4578 76.26C76.9511 77.1933 78.1245 78.5267 78.9778 80.26C79.8578 81.9933 80.2978 84.0067 80.2978 86.3C80.2978 88.5933 79.8578 90.62 78.9778 92.38C78.1245 94.1133 76.9511 95.46 75.4578 96.42C73.9645 97.3533 72.2978 97.82 70.4578 97.82C68.8845 97.82 67.5111 97.5133 66.3378 96.9C65.1645 96.26 64.2445 95.42 63.5778 94.38V97.5H56.7378V67.9H63.5778V78.34ZM73.3378 86.3C73.3378 84.5933 72.8578 83.26 71.8978 82.3C70.9645 81.3133 69.8045 80.82 68.4178 80.82C67.0578 80.82 65.8978 81.3133 64.9378 82.3C64.0045 83.2867 63.5378 84.6333 63.5378 86.34C63.5378 88.0467 64.0045 89.3933 64.9378 90.38C65.8978 91.3667 67.0578 91.86 68.4178 91.86C69.7778 91.86 70.9378 91.3667 71.8978 90.38C72.8578 89.3667 73.3378 88.0067 73.3378 86.3ZM82.5263 86.3C82.5263 84.0067 82.9529 81.9933 83.8063 80.26C84.6863 78.5267 85.8729 77.1933 87.3663 76.26C88.8596 75.3267 90.5263 74.86 92.3663 74.86C93.9396 74.86 95.3129 75.18 96.4863 75.82C97.6863 76.46 98.6063 77.3 99.2463 78.34V75.18H106.086V97.5H99.2463V94.34C98.5796 95.38 97.6463 96.22 96.4463 96.86C95.2729 97.5 93.8996 97.82 92.3263 97.82C90.5129 97.82 88.8596 97.3533 87.3663 96.42C85.8729 95.46 84.6863 94.1133 83.8063 92.38C82.9529 90.62 82.5263 88.5933 82.5263 86.3ZM99.2463 86.34C99.2463 84.6333 98.7663 83.2867 97.8063 82.3C96.8729 81.3133 95.7263 80.82 94.3663 80.82C93.0063 80.82 91.8463 81.3133 90.8863 82.3C89.9529 83.26 89.4863 84.5933 89.4863 86.3C89.4863 88.0067 89.9529 89.3667 90.8863 90.38C91.8463 91.3667 93.0063 91.86 94.3663 91.86C95.7263 91.86 96.8729 91.3667 97.8063 90.38C98.7663 89.3933 99.2463 88.0467 99.2463 86.34ZM124.635 74.94C127.248 74.94 129.328 75.7933 130.875 77.5C132.448 79.18 133.235 81.5 133.235 84.46V97.5H126.435V85.38C126.435 83.8867 126.048 82.7267 125.275 81.9C124.501 81.0733 123.461 80.66 122.155 80.66C120.848 80.66 119.808 81.0733 119.035 81.9C118.261 82.7267 117.875 83.8867 117.875 85.38V97.5H111.035V75.18H117.875V78.14C118.568 77.1533 119.501 76.38 120.675 75.82C121.848 75.2333 123.168 74.94 124.635 74.94ZM146.468 74.86C148.041 74.86 149.414 75.18 150.588 75.82C151.788 76.46 152.708 77.3 153.348 78.34V75.18H160.188V97.46C160.188 99.5133 159.774 101.367 158.948 103.02C158.148 104.7 156.908 106.033 155.228 107.02C153.574 108.007 151.508 108.5 149.028 108.5C145.721 108.5 143.041 107.713 140.988 106.14C138.934 104.593 137.761 102.487 137.468 99.82H144.228C144.441 100.673 144.948 101.34 145.748 101.82C146.548 102.327 147.534 102.58 148.708 102.58C150.121 102.58 151.241 102.167 152.068 101.34C152.921 100.54 153.348 99.2467 153.348 97.46V94.3C152.681 95.34 151.761 96.1933 150.588 96.86C149.414 97.5 148.041 97.82 146.468 97.82C144.628 97.82 142.961 97.3533 141.468 96.42C139.974 95.46 138.788 94.1133 137.908 92.38C137.054 90.62 136.628 88.5933 136.628 86.3C136.628 84.0067 137.054 81.9933 137.908 80.26C138.788 78.5267 139.974 77.1933 141.468 76.26C142.961 75.3267 144.628 74.86 146.468 74.86ZM153.348 86.34C153.348 84.6333 152.868 83.2867 151.908 82.3C150.974 81.3133 149.828 80.82 148.468 80.82C147.108 80.82 145.948 81.3133 144.988 82.3C144.054 83.26 143.588 84.5933 143.588 86.3C143.588 88.0067 144.054 89.3667 144.988 90.38C145.948 91.3667 147.108 91.86 148.468 91.86C149.828 91.86 150.974 91.3667 151.908 90.38C152.868 89.3933 153.348 88.0467 153.348 86.34ZM185.336 69.42V74.9H177.896V97.5H171.056V74.9H163.616V69.42H185.336ZM195.609 78.9C196.409 77.6733 197.409 76.7133 198.609 76.02C199.809 75.3 201.142 74.94 202.609 74.94V82.18H200.729C199.022 82.18 197.742 82.5533 196.889 83.3C196.036 84.02 195.609 85.3 195.609 87.14V97.5H188.769V75.18H195.609V78.9ZM209.318 72.86C208.118 72.86 207.132 72.5133 206.358 71.82C205.612 71.1 205.238 70.22 205.238 69.18C205.238 68.1133 205.612 67.2333 206.358 66.54C207.132 65.82 208.118 65.46 209.318 65.46C210.492 65.46 211.452 65.82 212.198 66.54C212.972 67.2333 213.358 68.1133 213.358 69.18C213.358 70.22 212.972 71.1 212.198 71.82C211.452 72.5133 210.492 72.86 209.318 72.86ZM212.718 75.18V97.5H205.878V75.18H212.718ZM224.515 78.34C225.182 77.3 226.102 76.46 227.275 75.82C228.449 75.18 229.822 74.86 231.395 74.86C233.235 74.86 234.902 75.3267 236.395 76.26C237.889 77.1933 239.062 78.5267 239.915 80.26C240.795 81.9933 241.235 84.0067 241.235 86.3C241.235 88.5933 240.795 90.62 239.915 92.38C239.062 94.1133 237.889 95.46 236.395 96.42C234.902 97.3533 233.235 97.82 231.395 97.82C229.849 97.82 228.475 97.5 227.275 96.86C226.102 96.22 225.182 95.3933 224.515 94.38V108.14H217.675V75.18H224.515V78.34ZM234.275 86.3C234.275 84.5933 233.795 83.26 232.835 82.3C231.902 81.3133 230.742 80.82 229.355 80.82C227.995 80.82 226.835 81.3133 225.875 82.3C224.942 83.2867 224.475 84.6333 224.475 86.34C224.475 88.0467 224.942 89.3933 225.875 90.38C226.835 91.3667 227.995 91.86 229.355 91.86C230.715 91.86 231.875 91.3667 232.835 90.38C233.795 89.3667 234.275 88.0067 234.275 86.3Z" fill="#265073"/>
<defs>
<clipPath id="clip0_126_244">
<rect width="50" height="50" fill="white" transform="translate(67 3.5)"/>
</clipPath>
</defs>
</svg>
